<?xml version="1.0" standalone="no"?>
<!DOCTYPE svg PUBLIC "-//W3C//DTD SVG 20010904//EN"
 "http://www.w3.org/TR/2001/REC-SVG-20010904/DTD/svg10.dtd">
<svg version="1.0" xmlns="http://www.w3.org/2000/svg"
 width="366.000000pt" height="139.000000pt" viewBox="0 0 366.000000 139.000000"
 preserveAspectRatio="xMidYMid meet">

<g transform="translate(0.000000,139.000000) scale(0.100000,-0.100000)"
fill="#000000" stroke="none">
<path d="M1595 927 c-87 -41 -135 -128 -135 -241 0 -167 102 -271 262 -269 87
1 161 45 206 122 25 42 27 55 27 147 0 95 -2 104 -30 150 -46 73 -106 106
-203 111 -66 3 -84 1 -127 -20z m212 -68 c76 -47 104 -198 53 -289 -65 -117
-229 -118 -297 -2 -53 90 -29 239 46 289 56 36 139 37 198 2z"/>
<path d="M2420 684 l0 -265 33 3 32 3 3 263 2 262 -35 0 -35 0 0 -266z"/>
<path d="M180 793 c0 -154 125 -274 284 -273 l51 1 -43 21 c-85 41 -147 134
-166 250 -8 42 -34 58 -53 32 -12 -17 -13 -17 -13 0 0 25 -23 14 -31 -15 -7
-24 -7 -24 -8 4 -2 47 -21 29 -21 -20z"/>
<path d="M1212 825 c2 -1 12 -7 24 -13 15 -8 21 -8 21 1 0 7 -11 13 -24 13
-14 1 -23 1 -21 -1z"/>
<path d="M1015 802 c5 -13 3 -13 -11 -1 -16 13 -16 12 -4 -11 12 -23 12 -24
-3 -11 -13 10 -17 10 -17 1 0 -7 -44 -56 -98 -109 -146 -144 -288 -211 -447
-211 -81 0 -127 12 -179 48 -57 40 -97 94 -111 154 l-13 53 -1 -75 c-1 -94 19
-141 83 -197 75 -66 151 -87 295 -81 95 4 132 11 204 36 150 51 285 146 395
277 36 42 78 116 65 113 -5 0 -19 3 -33 9 -14 6 -49 13 -78 15 -44 4 -52 2
-47 -10z"/>
<path d="M1311 792 c-1 -8 -6 -10 -13 -6 -8 5 -7 1 2 -10 15 -19 26 -7 17 17
-4 9 -6 9 -6 -1z"/>
<path d="M2156 760 c-15 -5 -36 -16 -46 -25 -16 -15 -18 -14 -23 5 -4 15 -13
20 -36 20 l-31 0 0 -245 0 -245 35 0 35 0 0 95 0 95 33 -20 c41 -25 111 -26
157 -1 81 43 107 186 47 265 -15 20 -36 40 -46 46 -28 15 -93 20 -125 10z
m103 -84 c46 -49 35 -157 -18 -186 -39 -20 -91 -12 -122 19 -25 25 -29 37 -29
84 0 75 29 107 98 107 39 0 53 -5 71 -24z"/>
<path d="M2681 760 c-74 -17 -122 -76 -129 -154 -4 -46 0 -62 22 -100 63 -107
235 -116 307 -15 27 38 36 113 20 162 -15 45 -68 93 -118 106 -43 12 -54 12
-102 1z m117 -77 c27 -17 42 -52 42 -100 0 -53 -53 -103 -110 -103 -35 0 -48
6 -77 35 -33 33 -35 39 -31 85 6 57 27 86 72 99 36 10 71 5 104 -16z"/>
<path d="M3094 756 c-18 -8 -36 -22 -42 -31 -8 -15 -10 -14 -16 9 -5 21 -12
26 -36 26 l-30 0 0 -171 0 -170 33 3 32 3 5 113 c5 109 6 115 33 138 18 15 41
24 63 24 32 0 34 2 34 35 0 30 -3 35 -22 35 -13 -1 -37 -7 -54 -14z"/>
<path d="M3295 764 c-33 -8 -95 -37 -95 -44 0 -4 8 -14 18 -23 17 -16 22 -16
59 -1 70 28 133 4 133 -50 0 -12 -11 -16 -46 -16 -136 0 -212 -67 -173 -153
25 -56 140 -78 192 -37 25 20 25 20 30 -1 4 -16 12 -20 34 -17 l28 3 3 111 c3
125 -9 177 -48 205 -26 19 -99 32 -135 23z m115 -208 c0 -61 -84 -105 -135
-72 -29 19 -32 47 -7 68 21 19 44 25 100 27 38 1 42 -1 42 -23z"/>
<path d="M1197 677 c-111 -162 -306 -301 -497 -353 -89 -25 -306 -26 -370 -2
l-45 17 47 -43 c123 -113 354 -162 522 -112 242 72 415 273 416 483 0 31 -5
45 -19 52 -16 9 -24 3 -54 -42z"/>
</g>
</svg>
